v 0.000000 -0.081461 -2.618913
v 0.000000 0.767067 1.177018
v -0.800000 -0.081461 0.381087
v 0.800000 -0.081461 0.381087
v -0.200000 -0.081461 0.381087
v -0.800000 -0.081461 0.381087
v -0.781371 -0.441461 1.814198
v -0.625097 -0.441461 -0.414050
v -1.200000 -0.081461 -0.118913
v -0.200000 -0.081461 -1.118913
v 0.200000 -0.081461 0.381087
v 0.800000 -0.081461 0.381087
v 0.781371 -0.441461 1.814198
v 0.625097 -0.441461 -0.414050
v 1.200000 -0.081461 -0.118913
v 0.200000 -0.081461 -1.118913
vn -0.6332 0.7554 -0.1688
vn 0.6332 0.7554 -0.1688
vn -0.0000 0.9699 0.2436
vn 0.5988 -0.7998 0.0420
vn -0.8710 0.3464 -0.3484
vn 0.6463 -0.7631 -0.0000
vn 0.3859 0.8694 -0.3087
vn -0.5443 -0.8380 -0.0382
vn -0.2955 0.9257 0.2364
vn -0.5988 -0.7998 0.0420
vn -0.3859 0.8694 -0.3087
vn -0.6463 -0.7631 -0.0000
vn 0.8710 0.3464 -0.3484
vn 0.5443 -0.8380 -0.0382
vn 0.2955 0.9257 0.2364
vn -0.0000 -1.0000 -0.0000
vn -0.0000 -0.6841 0.7294
vt 0.670455 0.680758
vt 0.657201 0.363215
vt 0.034192 0.674592
vt 0.023066 0.363974
vt 0.189896 0.845192
vt 0.200120 0.241913
vt 0.193173 0.507042
vt 0.200412 0.485611
vt 0.700922 0.446664
vt 0.901794 0.220933
vt 0.276751 0.974349
vt 0.741050 0.362352
vt 0.947440 0.463793
vt 0.186395 0.898608
vt 0.758949 0.171715
vt 0.323970 0.849721
vt 0.700922 0.271142
vt 0.026067 0.974349
vt 0.764670 0.032019
vt 0.699229 0.553336
vt 0.900101 0.779067
vt 0.456616 0.974349
vt 0.739357 0.637648
vt 0.945747 0.536207
vt 0.546971 0.898608
vt 0.757256 0.828285
vt 0.409397 0.849721
vt 0.699229 0.728858
vt 0.762977 0.967981
vt 0.707299 0.974349
f 2/3/1 1/1/1 3/5/1
f 4/7/2 1/1/2 2/3/2
f 5/9/3 6/12/3 7/13/3
f 5/10/4 7/13/4 8/15/4
f 8/14/5 6/11/5 10/18/5
f 10/19/6 5/10/6 8/15/6
f 6/11/7 8/14/7 9/16/7
f 8/15/8 7/13/8 9/17/8
f 6/12/9 9/17/9 7/13/9
f 11/20/3 13/24/3 12/23/3
f 11/21/10 14/26/10 13/24/10
f 12/22/11 15/27/11 14/25/11
f 16/29/12 14/26/12 11/21/12
f 12/22/13 14/25/13 16/30/13
f 14/26/14 15/28/14 13/24/14
f 12/23/15 13/24/15 15/28/15
f 1/2/16 4/8/16 3/6/16
f 2/4/17 3/6/17 4/8/17
